# xmcd
#
# Track frame offsets:
#	182
#	24905
#	36235
#	46087
#	64527
#	69430
#	80607
#	89542
#	95772
#	105800
#	110120
#	131092
#	147065
#	171325
#	192177
#	211390
#	224760
#	240795
#	251472
#	262442
#	277145
#	290432
#	306842
#	320690
#
# Disc length: 4459 seconds
#
# Revision: 1
# Processed by: cddbd v1.5.2PL0 Copyright (c) Steve Scherf et al.
# Submitted via: EasyCDDAExtractor 16.0.6.1
#
DISCID=6c116918
DTITLE=Peter Fischer - Blues Guitar Rules
DYEAR=1900
DGENRE=Blues
TTITLE0=Ex 01 - 18
TTITLE1=Ex 11 - 31
TTITLE2=Ex 32 - 36
TTITLE3=Ex 37 - 41
TTITLE4=Ex 42 - 43
TTITLE5=EX 44 - 46
TTITLE6=EX 47 - 48
TTITLE7=EX 49 - 50
TTITLE8=EX 51 - 52
TTITLE9=Ex 53
TTITLE10=Ex 54 - 71
TTITLE11=Ex 86 - 103
TTITLE12=Ex 104 - 125
TTITLE13=Song 01
TTITLE14=Song 02
TTITLE15=Song 03
TTITLE16=Song 04
TTITLE17=Song 05
TTITLE18=Song 06
TTITLE19=Song 07
TTITLE20=Song 08
TTITLE21=Song 09
TTITLE22=Song 10
TTITLE23=Song 11
EXTD=
EXTT0=
EXTT1=
EXTT2=
EXTT3=
EXTT4=
EXTT5=
EXTT6=
EXTT7=
EXTT8=
EXTT9=
EXTT10=
EXTT11=
EXTT12=
EXTT13=
EXTT14=
EXTT15=
EXTT16=
EXTT17=
EXTT18=
EXTT19=
EXTT20=
EXTT21=
EXTT22=
EXTT23=
PLAYORDER=
